<svg xmlns="http://www.w3.org/2000/svg" viewBox="0 0 64 29" fill="none">
     <g id="car-6" stroke="none" stroke-width="1" fill="none" fill-rule="evenodd">
                        <ellipse cx="32.5" cy="23.5" rx="28.5" ry="1.5" fill="white"></ellipse>
            <path d="M37.6794 4.8745C38.7512 5.20483 40.1835 5.88644 41.6719 6.682C41.3201 7.14369 41.1041 7.6797 41.041 8.26833H14.8417C12.9461 8.26833 11.7792 8.21082 10.7684 7.97341C10.8696 7.89919 10.9688 7.82645 11.066 7.75513C12.1172 6.9839 12.9396 6.38051 13.6572 5.90194C14.6012 5.27239 15.3327 4.88064 16.1169 4.62723C17.6267 4.13934 19.3814 4.14001 23.2729 4.14149C23.4943 4.14158 23.7227 4.14167 23.9583 4.14167C25.0049 4.14167 26.3737 4.1413 27.8258 4.14091L28.1087 4.14083C29.6651 4.14042 31.2984 4.14 32.72 4.14C34.3958 4.14 36.0794 4.38156 37.6794 4.8745Z" fill="#EBEBEB" stroke="white"></path>
            <path fill-rule="evenodd" clip-rule="evenodd" d="M8.06666 20.8317C4.90832 20.8317 1.59499 18.6983 1.45166 18.605L1.12999 18.395V13.595L1.23166 13.425C1.39332 13.155 1.81499 12.3083 1.81499 11.6333L1.98666 8.32L8.26332 4.015L8.05666 2.62167L8.70666 2.48333C11.32 1.925 15.9183 1.53667 19.8867 1.53667L33.705 1.535C35.56 1.69667 37.135 1.98167 38.445 2.385C41.1167 3.20667 47.1317 6.81667 48.1367 7.425C49.085 7.535 54.1167 8.15 58.2367 9.20167C63.115 10.4467 64.77 12.4017 64.965 13.2617L65.39 20.25L64.7967 20.3867C63.6433 20.655 62.7 20.83 60.19 20.83H57.7017V19.4117H60.19C62.1167 19.4117 63.025 19.31 63.885 19.1367L63.8567 18.7533L63.5667 13.4567C63.475 13.2483 62.1133 11.655 57.8867 10.575C53.44 9.44 47.88 8.82167 47.8233 8.81667L47.5317 8.71667C47.465 8.675 40.7167 4.56667 38.0283 3.74C36.8133 3.365 35.3383 3.1 33.6433 2.95L19.8867 2.955C16.3217 2.955 12.2533 3.27167 9.65499 3.74167L9.79499 4.68167L3.36666 9.09333L3.23166 11.67C3.23332 12.6083 2.76499 13.5767 2.54666 13.9783V17.6117C3.42832 18.1267 5.95166 19.44 8.23332 19.4133L12.5517 19.4117V20.83H8.25166C8.18999 20.8317 8.12832 20.8317 8.06666 20.8317ZM20.295 20.83H49.9583V19.4117H20.295V20.83Z" fill="white"></path>
            <path fill-rule="evenodd" clip-rule="evenodd" d="M2.05832 12.8267H2.95166C4.10499 12.8267 5.63166 11.9533 5.67832 10.9567V10.0367H2.07832C2.07832 10.98 2.06499 11.865 2.05832 12.8267Z" fill="white"></path>
            <path fill-rule="evenodd" clip-rule="evenodd" d="M59.5617 12.6433L60.915 15.0717C61.3583 14.8183 62.0116 14.6533 62.5166 14.6533H62.55C63.255 14.6617 63.9567 14.6533 64.6617 14.6533L64.635 14.54C64.5783 14.3033 63.905 13.155 63.2116 12.6433C61.995 12.6433 60.7783 12.6433 59.5617 12.6433Z" fill="white"></path>
            <path fill-rule="evenodd" clip-rule="evenodd" d="M32.5183 11.6167H35.7883V10.6717H32.5183V11.6167Z" fill="white"></path>
            <path fill-rule="evenodd" clip-rule="evenodd" d="M18.92 11.6167H22.19V10.6717H18.92V11.6167Z" fill="white"></path>
            <path fill-rule="evenodd" clip-rule="evenodd" d="M24.0517 16.5583V17.7683H46.2717L24.0517 16.5583Z" fill="white"></path>
            <path fill-rule="evenodd" clip-rule="evenodd" d="M63.0617 18.0167H64.6567V17.0717H63.0617V18.0167Z" fill="white"></path>
            <path fill-rule="evenodd" clip-rule="evenodd" d="M62.81 16.765H62.1083C61.83 16.765 61.6033 16.9917 61.6033 17.27V17.8183C61.6033 18.0967 61.83 18.3217 62.1083 18.3217H62.81C63.0883 18.3217 63.315 18.0967 63.315 17.8183V17.27C63.315 16.9917 63.0883 16.765 62.81 16.765Z" fill="white"></path>
            <path fill-rule="evenodd" clip-rule="evenodd" d="M42.8517 7.14333L42.8383 7.15666C42.4433 7.54166 42.2333 8.01166 42.2133 8.55666C42.2067 8.75166 42.2717 8.92166 42.4083 9.06166C42.5433 9.20166 42.71 9.27333 42.9067 9.27333H44.4733C44.73 9.27333 44.95 9.145 45.075 8.92C45.2017 8.69667 45.1967 8.44 45.0633 8.22166C44.7767 7.75166 44.3083 7.245 43.5633 6.985C43.3083 6.89666 43.045 6.95666 42.8517 7.14333Z" fill="white"></path>
            <path fill-rule="evenodd" clip-rule="evenodd" d="M44.1333 9.985C43.9883 9.985 43.845 9.91833 43.7517 9.79167L42.875 8.58833C42.7217 8.37833 42.7683 8.08333 42.9783 7.92833C43.1883 7.77667 43.485 7.82 43.6383 8.03167L44.515 9.235C44.6683 9.445 44.6216 9.74 44.4116 9.895C44.3283 9.955 44.23 9.985 44.1333 9.985Z" fill="white"></path>
            <path fill-rule="evenodd" clip-rule="evenodd" d="M2.23666 18.2517V20.2483H7.43666V20.0917C5.26832 19.89 3.10666 18.755 2.23666 18.2517Z" fill="white"></path>
            <path fill-rule="evenodd" clip-rule="evenodd" d="M16.4233 12.29C18.08 12.29 19.5867 12.9683 20.68 14.0617H20.6817L20.6833 14.0633C21.775 15.1567 22.4533 16.665 22.4533 18.32V20.83H20.2033C20.5817 20.1833 20.7967 19.4317 20.7967 18.63C20.7967 16.215 18.8383 14.2567 16.4233 14.2567C14.0083 14.2567 12.05 16.215 12.05 18.63C12.05 19.4317 12.265 20.1833 12.6417 20.83H10.3933V18.32C10.3933 16.665 11.0717 15.1567 12.1633 14.0633L12.165 14.0617H12.1667C13.26 12.9683 14.7683 12.29 16.4233 12.29Z" fill="white"></path>
            <path fill-rule="evenodd" clip-rule="evenodd" d="M12.8133 15.02C13.7367 14.0967 15.0133 13.525 16.4233 13.525C17.8317 13.525 19.1083 14.0967 20.0317 15.02L20.035 15.0217C20.9583 15.9467 21.53 17.2217 21.53 18.63C21.53 20.04 20.9583 21.3167 20.035 22.24H20.0317C19.1083 23.1633 17.8317 23.7367 16.4233 23.7367C15.0133 23.7367 13.7367 23.165 12.8133 22.24C11.89 21.3167 11.3183 20.04 11.3183 18.63C11.3183 17.2217 11.89 15.9467 12.8133 15.0217V15.02ZM16.4233 15.06C14.4517 15.06 12.8533 16.6583 12.8533 18.63C12.8533 20.6017 14.4517 22.2 16.4233 22.2C18.395 22.2 19.9933 20.6017 19.9933 18.63C19.9933 16.6583 18.395 15.06 16.4233 15.06Z" fill="white"></path>
            <path fill-rule="evenodd" clip-rule="evenodd" d="M16.425 19.925C17.1367 19.925 17.7183 19.3433 17.7183 18.63C17.7183 17.9183 17.1367 17.3367 16.425 17.3367C15.7117 17.3367 15.13 17.9183 15.13 18.63C15.13 19.3433 15.7117 19.925 16.425 19.925Z" fill="white"></path>
            <path fill-rule="evenodd" clip-rule="evenodd" d="M53.83 12.29C55.4867 12.29 56.9933 12.9683 58.0867 14.0617H58.0883L58.09 14.0633C59.1817 15.1567 59.86 16.665 59.86 18.32V20.83H57.61C57.9883 20.1833 58.2033 19.4317 58.2033 18.63C58.2033 16.215 56.245 14.2567 53.83 14.2567C51.4133 14.2567 49.455 16.215 49.455 18.63C49.455 19.4317 49.6717 20.1833 50.0483 20.83H47.8V18.32C47.8 16.665 48.4783 15.1567 49.57 14.0633L49.5717 14.0617H49.5733C50.6667 12.9683 52.175 12.29 53.83 12.29Z" fill="white"></path>
            <path fill-rule="evenodd" clip-rule="evenodd" d="M50.22 15.02C51.1433 14.0967 52.42 13.525 53.83 13.525C55.2383 13.525 56.515 14.0967 57.4383 15.02L57.4417 15.0217C58.3633 15.9467 58.9367 17.2217 58.9367 18.63C58.9367 20.04 58.365 21.3167 57.4417 22.24H57.4383C56.515 23.1633 55.2383 23.7367 53.83 23.7367C52.42 23.7367 51.1433 23.165 50.22 22.24C49.2967 21.3167 48.725 20.04 48.725 18.63C48.725 17.2217 49.2967 15.9467 50.22 15.0217V15.02ZM53.83 15.06C51.8583 15.06 50.26 16.6583 50.26 18.63C50.26 20.6017 51.8583 22.2 53.83 22.2C55.8017 22.2 57.4 20.6017 57.4 18.63C57.4 16.6583 55.8017 15.06 53.83 15.06Z" fill="white"></path>
            <path fill-rule="evenodd" clip-rule="evenodd" d="M53.83 19.925C54.5433 19.925 55.125 19.3433 55.125 18.63C55.125 17.9183 54.5433 17.3367 53.83 17.3367C53.1183 17.3367 52.5367 17.9183 52.5367 18.63C52.5367 19.3433 53.1183 19.925 53.83 19.925Z" fill="white"></path>
        </g>
</svg>