<svg xmlns="http://www.w3.org/2000/svg" viewBox="0 0 64 29" fill="none">
    <g id="car-3" stroke="none" stroke-width="1" fill="none" fill-rule="evenodd">
            <ellipse cx="32.5" cy="23.5" rx="28.5" ry="1.5" fill="white"></ellipse>
            <path d="M28.2266 3.66424C32.5483 3.61341 35.5022 5.03177 38.7265 6.89284C38.4159 7.30685 38.2073 7.77602 38.1108 8.28681L16.8121 7.49606C16.8082 7.49536 16.8035 7.49452 16.7983 7.49352C16.7715 7.4884 16.7286 7.4792 16.6735 7.46402C16.5628 7.43352 16.406 7.3798 16.2318 7.28877C15.9857 7.16014 15.7058 6.95803 15.4686 6.63778C15.7726 6.50981 16.0625 6.38727 16.3402 6.26993C18.4974 5.35842 19.9131 4.76022 21.3843 4.3638C23.1323 3.89283 24.9687 3.70603 28.2266 3.66424Z" fill="#EBEBEB" stroke="white"></path>
            <path fill-rule="evenodd" clip-rule="evenodd" d="M2.92978 9.55893C2.90133 10.3036 2.87644 11.0946 2.87466 11.5625H3.82578C5.056 11.5625 6.68444 10.6286 6.73422 9.55893V8.57321H2.896V9.55893H2.92978Z" fill="white"></path>
            <path fill-rule="evenodd" clip-rule="evenodd" d="M2.47111 18.0482V20.1857H8.016V20.0196C5.70489 19.8036 3.39733 18.5875 2.47111 18.0482Z" fill="white"></path>
            <path fill-rule="evenodd" clip-rule="evenodd" d="M39.968 7.35357L39.9556 7.36607C39.5342 7.78036 39.3102 8.28393 39.2889 8.86786C39.2818 9.07679 39.3511 9.25893 39.4951 9.40893C39.6391 9.55893 39.8187 9.63572 40.0267 9.63572H41.6978C41.9716 9.63572 42.2062 9.49643 42.3396 9.25536C42.4747 9.01607 42.4693 8.74286 42.3271 8.50714C42.0213 8.00357 41.5236 7.4625 40.7271 7.18393C40.4569 7.08929 40.1742 7.15179 39.968 7.35357Z" fill="white"></path>
            <path fill-rule="evenodd" clip-rule="evenodd" d="M41.3369 10.3964C41.1804 10.3964 41.0276 10.325 40.9298 10.1893L39.9947 8.90178C39.8293 8.675 39.8791 8.35893 40.1049 8.19464C40.3289 8.03214 40.6436 8.08035 40.8089 8.30535L41.744 9.59286C41.9076 9.81786 41.8578 10.1339 41.6338 10.3C41.5431 10.3643 41.44 10.3964 41.3369 10.3964Z" fill="white"></path>
            <path fill-rule="evenodd" clip-rule="evenodd" d="M8.19022 20.5357C4.82311 20.5357 1.29067 18.2482 1.13956 18.15L0.794666 17.925V13.1804L1.02222 12.9571C1.35111 12.6321 2.03022 11.7714 2.03022 11.1875L2.23111 6.37143L7.28356 5.87857C15.9538 1.75893 19.2764 0.964284 28.0213 0.883926C33.9236 0.887498 37.5129 2.95536 41.7049 5.41428C42.672 5.98214 43.6818 6.57321 44.7662 7.16607C45.8827 7.20178 51.6107 7.43393 56.0924 8.58214C60.288 9.65893 62.9689 11.0946 63.2676 12.4268L63.7209 19.9125L63.088 20.0589C61.8596 20.3446 60.8551 20.5321 58.1742 20.5321H57.7084V19.0143H58.1742C60.2293 19.0143 61.2 18.9054 62.1138 18.7196L62.0836 18.3089L61.7742 12.6357C61.6551 12.4446 60.2258 11.2107 55.7191 10.0536C51.0027 8.84464 44.6098 8.68036 44.5476 8.68036L44.2044 8.58928C43.0436 7.95714 41.9716 7.32857 40.9422 6.725C36.7787 4.28214 33.5378 2.37321 28.0356 2.40357C19.5307 2.48036 16.3164 3.25893 7.81155 7.30893L7.55911 7.37857L3.68533 7.75536L3.54133 11.2196C3.54311 12.2839 2.72533 13.3339 2.30755 13.8018V17.0857C3.248 17.6375 5.97333 19.0589 8.36978 19.0143H9.63555V20.5321H8.39111C8.32533 20.5339 8.25778 20.5357 8.19022 20.5357ZM18.4978 20.5321H47.2871V19.0143H18.4978V20.5321Z" fill="white"></path>
            <path fill-rule="evenodd" clip-rule="evenodd" d="M52.4978 11.3821C54.2649 11.3821 55.872 12.1089 57.0382 13.2804H57.04L57.0418 13.2821C58.208 14.4536 58.9316 16.0696 58.9316 17.8429V20.5321H56.5316C56.9333 19.8393 57.1627 19.0339 57.1627 18.175C57.1627 15.5875 55.0756 13.4893 52.4978 13.4893C49.9218 13.4893 47.8329 15.5875 47.8329 18.175C47.8329 19.0339 48.0622 19.8393 48.4658 20.5321H46.0658V17.8429C46.0658 16.0696 46.7893 14.4536 47.9538 13.2821L47.9556 13.2804H47.9573C49.1236 12.1089 50.7324 11.3821 52.4978 11.3821Z" fill="white"></path>
            <path fill-rule="evenodd" clip-rule="evenodd" d="M48.6471 14.3071C49.632 13.3179 50.9956 12.7054 52.4978 12.7054C54 12.7054 55.3618 13.3179 56.3467 14.3071L56.3502 14.3089C57.3351 15.3 57.9449 16.6661 57.9449 18.175C57.9449 19.6857 57.3351 21.0536 56.3502 22.0429H56.3467C55.3618 23.0321 54 23.6464 52.4978 23.6464C50.9956 23.6464 49.632 23.0339 48.6471 22.0429C47.6622 21.0536 47.0524 19.6857 47.0524 18.175C47.0524 16.6661 47.6622 15.3 48.6471 14.3089V14.3071ZM52.4978 14.35C50.3964 14.35 48.6916 16.0625 48.6916 18.175C48.6916 20.2875 50.3964 22 52.4978 22C54.6009 22 56.3058 20.2875 56.3058 18.175C56.3058 16.0625 54.6009 14.35 52.4978 14.35Z" fill="white"></path>
            <path fill-rule="evenodd" clip-rule="evenodd" d="M52.4996 19.5625C53.2587 19.5625 53.8791 18.9393 53.8791 18.175C53.8791 17.4125 53.2587 16.7893 52.4996 16.7893C51.7387 16.7893 51.12 17.4125 51.12 18.175C51.12 18.9393 51.7387 19.5625 52.4996 19.5625Z" fill="white"></path>
            <path fill-rule="evenodd" clip-rule="evenodd" d="M22.7804 16.0179V17.3143H44.1707L22.7804 16.0179Z" fill="white"></path>
            <path fill-rule="evenodd" clip-rule="evenodd" d="M57.4507 11.3804L58.8942 13.9821C59.3671 13.7107 60.064 13.5339 60.6009 13.5339H60.6364C61.3884 13.5446 62.1387 13.5339 62.8889 13.5339L62.8604 13.4125C62.8 13.1607 62.0836 11.9286 61.344 11.3804C60.0462 11.3804 58.7484 11.3804 57.4507 11.3804Z" fill="white"></path>
            <path fill-rule="evenodd" clip-rule="evenodd" d="M61.1822 17.1375H62.8853V16.125H61.1822V17.1375Z" fill="white"></path>
            <path fill-rule="evenodd" clip-rule="evenodd" d="M60.9138 15.7964H60.1671C59.8702 15.7964 59.6284 16.0393 59.6284 16.3375V16.925C59.6284 17.2214 59.8702 17.4643 60.1671 17.4643H60.9138C61.2107 17.4643 61.4525 17.2214 61.4525 16.925V16.3375C61.4525 16.0393 61.2107 15.7964 60.9138 15.7964Z" fill="white"></path>
            <path fill-rule="evenodd" clip-rule="evenodd" d="M23.7867 10.8161H27.2729V9.80357H23.7867V10.8161Z" fill="white"></path>
            <path fill-rule="evenodd" clip-rule="evenodd" d="M14.0676 11.3821C15.8347 11.3821 17.4418 12.1089 18.608 13.2804H18.6098L18.6116 13.2821C19.776 14.4536 20.4996 16.0696 20.4996 17.8429V20.5321H18.0996C18.5031 19.8393 18.7324 19.0339 18.7324 18.175C18.7324 15.5875 16.6436 13.4893 14.0676 13.4893C11.4916 13.4893 9.40089 15.5875 9.40089 18.175C9.40089 19.0339 9.632 19.8393 10.0338 20.5321H7.63556V17.8429C7.63556 16.0696 8.35911 14.4536 9.52356 13.2821L9.52533 13.2804H9.52711C10.6933 12.1089 12.3022 11.3821 14.0676 11.3821Z" fill="white"></path>
            <path fill-rule="evenodd" clip-rule="evenodd" d="M10.2169 14.3071C11.2018 13.3179 12.5636 12.7054 14.0676 12.7054C15.5698 12.7054 16.9316 13.3179 17.9164 14.3071L17.92 14.3089C18.9049 15.3 19.5147 16.6661 19.5147 18.175C19.5147 19.6857 18.9049 21.0536 17.92 22.0429H17.9164C16.9316 23.0321 15.5698 23.6464 14.0676 23.6464C12.5636 23.6464 11.2018 23.0339 10.2169 22.0429C9.232 21.0536 8.62222 19.6857 8.62222 18.175C8.62222 16.6661 9.232 15.3 10.2169 14.3089V14.3071ZM14.0676 14.35C11.9644 14.35 10.2596 16.0625 10.2596 18.175C10.2596 20.2875 11.9644 22 14.0676 22C16.1707 22 17.8756 20.2875 17.8756 18.175C17.8756 16.0625 16.1707 14.35 14.0676 14.35Z" fill="white"></path>
            <path fill-rule="evenodd" clip-rule="evenodd" d="M14.0676 19.5625C14.8284 19.5625 15.4471 18.9393 15.4471 18.175C15.4471 17.4125 14.8284 16.7893 14.0676 16.7893C13.3084 16.7893 12.688 17.4125 12.688 18.175C12.688 18.9393 13.3084 19.5625 14.0676 19.5625Z" fill="white"></path>
        </g>
</svg>