<svg xmlns="http://www.w3.org/2000/svg" viewBox="0 0 64 29" fill="none">
    <g id="car-2" stroke="none" stroke-width="1" fill="none" fill-rule="evenodd">
            <ellipse cx="31.5" cy="27.5" rx="28.5" ry="1.5" fill="white"></ellipse>
            <path d="M10.3749 5.90756L10.3618 5.87314L10.3438 5.841C10.1985 5.58136 10.2183 5.42605 10.2762 5.31332C10.3516 5.16635 10.5564 4.96733 11.0148 4.77251C11.9272 4.3848 13.5484 4.13789 15.9094 4.13789H15.9108C21.9914 4.13789 28.0722 4.13789 34.1545 4.13628C36.3032 4.35223 38.0926 5.39782 39.8352 6.72288C39.8247 6.73289 39.8142 6.74304 39.8039 6.75333L39.7655 6.79144L39.7593 6.80099C39.4173 7.16865 39.2145 7.74731 39.0899 8.2503C39.0007 8.61034 38.9398 8.98273 38.9037 9.31276L12.2025 9.37611L12.202 9.37611C11.8707 9.37722 11.6324 9.21732 11.5504 9.00113L11.5503 9.0009L10.3749 5.90756Z" fill="white" stroke="white"></path>
            <path d="M6.18773 9.37773H3.71873C3.96469 8.22722 4.31224 6.7999 4.83214 5.7474H5.31023L6.18773 9.37773Z" fill="white" stroke="white"></path>
            <path fill-rule="evenodd" clip-rule="evenodd" d="M7.97344 23.2918C4.97637 23.2918 0.554125 20.5417 0.363686 20.4224L0.0436859 20.2227V15.9291L0.243491 15.7261C0.532271 15.4328 1.12856 14.6579 1.12856 14.1294L1.18476 13.0001C1.22534 12.2203 1.27217 11.3213 1.29715 10.5173C1.31276 10.0372 1.92154 9.222 2.62866 8.80633C2.93617 7.47877 3.46534 5.66144 3.90086 4.64483L4.06632 4.26944C4.11471 4.1615 4.15061 4.09544 4.16622 4.03583C4.15998 4.01005 4.14281 3.93755 4.12408 3.81994L3.943 2.63094L4.55334 2.49722C7.15705 1.92527 12.3723 1.58211 15.9094 1.58211H34.2384C38.0363 1.92366 40.3293 3.83927 42.7567 5.86766C43.8759 6.80211 45.0326 7.76877 46.3969 8.642C46.9963 8.7 47.8642 8.73383 48.8772 8.77411C54.9526 9.01255 60.455 9.45722 61.0638 12.2412L61.6304 15.4071C61.9926 15.66 62.5233 16.1643 62.5233 16.9392V20.9171C62.5233 21.5099 62.453 22.1044 61.952 22.4444C60.9904 23.0695 59.8649 23.2902 57.6406 23.2902H56.5229V21.9192H57.6406C59.5465 21.9192 60.4862 21.7613 61.1933 21.3182C61.1746 21.3037 61.1949 21.1797 61.1949 20.9171V16.9392C61.1949 16.7523 60.8796 16.5187 60.7531 16.4591L60.4425 16.3109L59.7635 12.5167C59.3342 10.556 52.238 10.2773 48.8273 10.1419C47.6893 10.0984 46.7278 10.0598 46.1065 9.98889L45.8333 9.89222C44.3364 8.94972 43.1094 7.92505 41.9215 6.931C39.5567 4.95739 37.5165 3.25283 34.1807 2.94994L15.9094 2.95316C12.7063 2.95316 8.12017 3.23511 5.45247 3.71361C5.52739 4.19211 5.49461 4.35161 5.26983 4.84783L5.1153 5.20066C4.68134 6.21244 4.12095 8.18444 3.85091 9.43305L3.7713 9.802L3.42632 9.92766C3.04232 10.0694 2.65832 10.5689 2.59588 10.7155C2.599 11.3744 2.55061 12.2863 2.51003 13.0742L2.45539 14.1617C2.45695 15.1187 1.73891 16.066 1.37208 16.4881V19.4429C2.43042 20.0664 5.83178 21.9401 8.08895 21.9208L9.70769 21.9192V23.2902H8.10769C8.06398 23.2902 8.01871 23.2918 7.97344 23.2918ZM19.253 23.2902H46.9775V21.9192H19.253V23.2902Z" fill="white"></path>
            <path fill-rule="evenodd" clip-rule="evenodd" d="M56.1951 12.5683L58.0433 15.9887C58.649 15.631 59.5403 15.4006 60.2287 15.4006H60.2739L60.9561 15.4054L60.5143 12.9421L56.1951 12.5683Z" fill="white"></path>
            <path fill-rule="evenodd" clip-rule="evenodd" d="M30.7574 11.9641H33.8201V11.0506H30.7574V11.9641Z" fill="white"></path>
            <path fill-rule="evenodd" clip-rule="evenodd" d="M18.7333 11.5066H21.7959V10.5931H18.7333V11.5066Z" fill="white"></path>
            <path fill-rule="evenodd" clip-rule="evenodd" d="M1.79508 14.0731H2.38044C3.73069 14.0731 5.518 13.0194 5.57264 11.8127V10.7026H1.95586C1.91683 11.8707 1.8341 13.2014 1.79508 14.0731Z" fill="white"></path>
            <path fill-rule="evenodd" clip-rule="evenodd" d="M40.6244 7.59317L40.6135 7.60606C40.2419 7.97501 40.0453 9.34767 40.0281 9.8729C40.0218 10.0614 40.0827 10.2257 40.2092 10.3611C40.3356 10.4964 40.4933 10.5657 40.6759 10.5657H42.1432C43.712 10.5657 41.8763 7.65117 41.2909 7.44012C41.0536 7.35473 40.8055 7.41434 40.6244 7.59317Z" fill="white"></path>
            <path fill-rule="evenodd" clip-rule="evenodd" d="M22.9276 18.8516V20.0213H43.7385L22.9276 18.8516Z" fill="white"></path>
            <path fill-rule="evenodd" clip-rule="evenodd" d="M10.8503 26.1967C9.99646 25.4475 9.36427 24.4389 9.06456 23.2902H8.06866V20.5964C8.06866 18.7775 8.78983 17.1213 9.95119 15.9226C11.1126 14.7239 12.7172 13.9796 14.4811 13.9796C16.2419 13.9796 17.8466 14.7239 19.008 15.9242L19.0095 15.9226C20.1709 17.1213 20.8921 18.7759 20.8921 20.5964V23.2902H19.8962C19.598 24.4389 18.9627 25.4475 18.112 26.1967C17.1317 27.057 15.8626 27.5774 14.4811 27.5774C13.0997 27.5774 11.8306 27.057 10.8503 26.1967ZM51.7494 17.9252C49.6827 17.9252 48.0078 19.6539 48.0078 21.7871C48.0078 23.9218 49.6827 25.6505 51.7494 25.6505C53.8162 25.6505 55.4911 23.9218 55.4911 21.7871C55.4911 19.6539 53.8162 17.9252 51.7494 17.9252ZM14.4811 17.9252C12.4144 17.9252 10.7379 19.6539 10.7379 21.7871C10.7379 23.9218 12.4144 25.6505 14.4811 25.6505C16.5479 25.6505 18.2228 23.9218 18.2228 21.7871C18.2228 19.6539 16.5479 17.9252 14.4811 17.9252ZM51.7494 13.9796C53.5118 13.9796 55.1149 14.7239 56.2778 15.9242L56.2794 15.9226C57.4408 17.1213 58.1619 18.7759 58.1619 20.5964V23.2902H57.1645C56.8663 24.4389 56.2326 25.4475 55.3803 26.1967C54.4 27.057 53.1309 27.5774 51.7494 27.5774C50.368 27.5774 49.1005 27.0586 48.1202 26.1983L48.1186 26.1999C47.2663 25.4507 46.6326 24.4406 46.3328 23.2902H45.3369V20.5964C45.3369 18.7759 46.0581 17.1213 47.2195 15.9226C48.3808 14.7239 49.9855 13.9796 51.7494 13.9796Z" fill="white"></path>
            <path fill-rule="evenodd" clip-rule="evenodd" d="M51.7495 20.2855C50.9456 20.2855 50.2946 20.9589 50.2946 21.7887C50.2946 22.6184 50.9456 23.2902 51.7495 23.2902C52.5534 23.2902 53.2043 22.6184 53.2043 21.7887C53.2043 20.9589 52.5534 20.2855 51.7495 20.2855Z" fill="white"></path>
            <path fill-rule="evenodd" clip-rule="evenodd" d="M14.4812 20.2855C13.6773 20.2855 13.0263 20.9589 13.0263 21.7887C13.0263 22.6184 13.6773 23.2902 14.4812 23.2902C15.2851 23.2902 15.936 22.6184 15.936 21.7887C15.936 20.9589 15.2851 20.2855 14.4812 20.2855Z" fill="white"></path>
        </g>
</svg>