<svg width="500" height="500" viewBox="0 0 500 500" xmlns="http://www.w3.org/2000/svg">
  <g transform="translate(250,250)" stroke="#f84525" fill="none" stroke-width="1">
    <rect x="-20" y="-20" width="40" height="40" rx="5" ry="5" opacity="0.50" transform="rotate(20)"/>
    <rect x="-30" y="-30" width="60" height="60" rx="6" ry="6" opacity="0.45" transform="rotate(25)"/>
    <rect x="-42" y="-42" width="84" height="84" rx="7" ry="7" opacity="0.40" transform="rotate(30)"/>
    <rect x="-56" y="-56" width="112" height="112" rx="8" ry="8" opacity="0.35" transform="rotate(35)"/>
    <rect x="-72" y="-72" width="144" height="144" rx="9" ry="9" opacity="0.30" transform="rotate(40)"/>
    <rect x="-90" y="-90" width="180" height="180" rx="10" ry="10" opacity="0.25" transform="rotate(45)"/>
    <rect x="-110" y="-110" width="220" height="220" rx="11" ry="11" opacity="0.20" transform="rotate(50)"/>
    <rect x="-132" y="-132" width="264" height="264" rx="12" ry="12" opacity="0.15" transform="rotate(55)"/>
    <rect x="-156" y="-156" width="312" height="312" rx="13" ry="13" opacity="0.10" transform="rotate(60)"/>
    <rect x="-182" y="-182" width="364" height="364" rx="14" ry="14" opacity="0.05" transform="rotate(65)"/>
  </g>
</svg>
