<svg xmlns="http://www.w3.org/2000/svg" viewBox="0 0 64 29" fill="white">
    <g id="car-4" stroke="none" stroke-width="1" fill="white" fill-rule="evenodd">
            <ellipse cx="32.5" cy="23.5" rx="28.5" ry="1.5" fill="white"></ellipse>

            <path d="M31.8083 3.67501C34.9451 3.96158 37.3464 4.97317 39.7665 6.34263C39.3728 6.88309 39.1569 7.51623 39.1311 8.20828L39.131 8.21166C39.1287 8.28581 39.1307 8.35944 39.1369 8.43231C38.7043 8.43479 38.2401 8.43781 37.7488 8.441C34.3583 8.46303 29.6761 8.49345 25.1626 8.41642C22.4057 8.36937 19.7176 8.2823 17.4299 8.12924C15.6163 8.00789 14.0775 7.84634 12.9603 7.63652C15.0387 5.30505 16.8564 3.67692 19.4192 3.67692H19.4199C22.8084 3.67692 28.4098 3.67692 31.8083 3.67501Z" fill="#EBEBEB" stroke="white"></path>
            <path fill-rule="evenodd" clip-rule="evenodd" d="M6.13077 21.2731C3.21347 21.2731 1.99039 19.4135 1.75385 18.4077L1.73077 14.4981L1.98654 14.2538C2.4077 13.8538 3.00193 13.0654 3.00193 12.5654L3.125 10.2019C3.16347 9.45192 3.51924 8.79231 4.12693 8.34808L10.6885 3.55961L9.83654 2.22885L10.8442 1.90385C13.3173 1.10192 14.9231 0.724999 18.9442 0.724999L31.9039 0.723076C33.8788 0.89423 35.5481 1.19615 36.9385 1.625C39.775 2.49615 46.1519 6.325 47.2077 6.96538C48.0462 7.09808 51.9673 7.74231 56.2404 8.83461C61.4327 10.1615 63.1981 12.2577 63.4058 13.1827L63.8615 20.6442L63.1769 20.8019C61.9558 21.0846 60.9558 21.2712 58.2885 21.2712H54.9423V19.6346H58.2885C60.2769 19.6346 61.2385 19.5327 62.125 19.3577L62.1 19.0135L61.7923 13.4058C61.6846 13.1846 60.2808 11.5538 55.8365 10.4212C51.1154 9.21346 46.8423 8.56346 46.8 8.55577L46.4962 8.44615C46.425 8.40192 39.2942 4.05961 36.4577 3.18654C35.1769 2.79231 33.6192 2.51346 31.8308 2.35385L18.9442 2.35961C15.7115 2.35961 14.1923 2.60192 12.3615 3.14231L12.8942 3.97308L5.09231 9.66923C4.88077 9.82308 4.77116 10.025 4.7577 10.2865L4.63654 12.6077C4.63654 13.6635 3.80962 14.7019 3.36731 15.1827V18.1C3.49039 18.4577 4.08847 19.6615 6.29808 19.6346H8.46154V21.2712H6.32116C6.25577 21.2731 6.19424 21.2731 6.13077 21.2731ZM16.2327 21.2712H47.1692V19.6346H16.2327V21.2712Z" fill="white"></path>
            <path fill-rule="evenodd" clip-rule="evenodd" d="M3.95193 10.125L3.94039 10.2442L3.83655 12.2385H6.09039C6.09039 12.2385 7.56347 10.6154 7.50386 9.62308C7.50386 9.62308 5.89809 9.60192 3.95193 10.125Z" fill="white"></path>
            <path fill-rule="evenodd" clip-rule="evenodd" d="M12.3481 12.3C14.0808 12.3 15.6558 13.0096 16.7962 14.15L16.7942 14.1519C17.9365 15.2942 18.6442 16.8692 18.6442 18.5981V21.2712H16.1269C16.5519 20.5885 16.7981 19.7827 16.7981 18.9192C16.7981 16.4596 14.8058 14.4673 12.3462 14.4673C9.88846 14.4673 7.89423 16.4596 7.89423 18.9192C7.89423 19.7827 8.14039 20.5885 8.56539 21.2712H6.05V18.5981C6.05 16.8654 6.7577 15.2904 7.89808 14.15C9.03846 13.0096 10.6135 12.3 12.3481 12.3ZM51.0577 12.3C52.7904 12.3 54.3654 13.0096 55.5058 14.15L55.5038 14.1519C56.6462 15.2942 57.3538 16.8692 57.3538 18.5981V21.2712H54.8385C55.2635 20.5885 55.5096 19.7827 55.5096 18.9192C55.5096 16.4596 53.5154 14.4673 51.0577 14.4673C48.5981 14.4673 46.6058 16.4596 46.6058 18.9192C46.6058 19.7827 46.8519 20.5885 47.2769 21.2712H44.7596V18.5981C44.7596 16.8654 45.4673 15.2904 46.6077 14.15C47.7481 13.0096 49.3231 12.3 51.0577 12.3Z" fill="white"></path>
            <path fill-rule="evenodd" clip-rule="evenodd" d="M24.4673 11.8808H26.8385V10.7904H24.4673V11.8808Z" fill="white"></path>
            <path fill-rule="evenodd" clip-rule="evenodd" d="M40.9115 6.61538L40.8962 6.63077C40.4404 7.075 40.1981 7.61731 40.1769 8.24615C40.1673 8.47115 40.2442 8.66731 40.4 8.82884C40.5558 8.99038 40.75 9.07308 40.975 9.07308H42.7808C43.0788 9.07308 43.3327 8.92308 43.4769 8.66538C43.6231 8.40577 43.6173 8.11154 43.4635 7.85769C43.1327 7.31731 42.5923 6.73269 41.7308 6.43269C41.4385 6.33077 41.1327 6.4 40.9115 6.61538Z" fill="white"></path>
            <path fill-rule="evenodd" clip-rule="evenodd" d="M42.3904 9.89423C42.2231 9.89423 42.0577 9.81731 41.9519 9.66923L40.9385 8.28269C40.7615 8.04038 40.8154 7.69808 41.0577 7.52115C41.3 7.34615 41.6404 7.39615 41.8192 7.64038L42.8327 9.02692C43.0096 9.27115 42.9558 9.61154 42.7115 9.78846C42.6154 9.85961 42.5038 9.89423 42.3904 9.89423Z" fill="white"></path>
            <path fill-rule="evenodd" clip-rule="evenodd" d="M12.3404 3.11346L6.27501 7.79808H9.94424L13.0173 3.86923L12.3404 3.11346Z" fill="white"></path>
            <path fill-rule="evenodd" clip-rule="evenodd" d="M57.5827 12.0365L59.1423 14.8385C59.6558 14.5462 60.4096 14.3577 60.9904 14.3577H61.0288C61.5442 14.3635 62.0596 14.3615 62.5731 14.3596L62.4885 13.3769C62.1846 12.8788 61.7827 12.4346 61.3077 12.0365H57.5827Z" fill="white"></path>
            <path fill-rule="evenodd" clip-rule="evenodd" d="M61.075 18.2365H62.9173V17.1462H61.075V18.2365Z" fill="white"></path>
            <path fill-rule="evenodd" clip-rule="evenodd" d="M60.7827 16.7923H59.975C59.6538 16.7923 59.3923 17.0538 59.3923 17.375V18.0077C59.3923 18.3288 59.6538 18.5885 59.975 18.5885H60.7827C61.1038 18.5885 61.3654 18.3288 61.3654 18.0077V17.375C61.3654 17.0538 61.1038 16.7923 60.7827 16.7923Z" fill="white"></path>
            <path fill-rule="evenodd" clip-rule="evenodd" d="M51.0577 15.2077C50.0327 15.2077 49.1038 15.6231 48.4346 16.2942C47.7635 16.9654 47.3462 17.8923 47.3462 18.9173C47.3462 19.9423 47.7635 20.8692 48.4346 21.5404C49.1038 22.2115 50.0327 22.6269 51.0577 22.6269C52.0808 22.6269 53.0096 22.2115 53.6808 21.5404C54.3519 20.8692 54.7673 19.9423 54.7673 18.9173C54.7673 17.8923 54.3519 16.9654 53.6808 16.2942C53.0096 15.6231 52.0808 15.2077 51.0577 15.2077ZM47.2769 15.1365C48.2442 14.1692 49.5808 13.5712 51.0577 13.5712C52.5327 13.5712 53.8692 14.1692 54.8365 15.1365C55.8038 16.1038 56.4019 17.4404 56.4019 18.9173C56.4019 20.3942 55.8038 21.7308 54.8365 22.6981C53.8692 23.6635 52.5327 24.2635 51.0577 24.2635C49.5808 24.2635 48.2442 23.6635 47.2769 22.6981C46.3096 21.7308 45.7115 20.3942 45.7115 18.9173C45.7115 17.4404 46.3096 16.1038 47.2769 15.1365ZM12.3481 15.2077C11.3231 15.2077 10.3942 15.6231 9.72308 16.2942C9.05385 16.9654 8.63654 17.8923 8.63654 18.9173C8.63654 19.9423 9.05385 20.8692 9.72308 21.5404C10.3942 22.2115 11.3231 22.6269 12.3481 22.6269C13.3712 22.6269 14.3 22.2115 14.9712 21.5404C15.6404 20.8692 16.0577 19.9423 16.0577 18.9173C16.0577 17.8923 15.6404 16.9654 14.9712 16.2942C14.3 15.6231 13.3712 15.2077 12.3481 15.2077ZM8.56731 15.1365C9.53461 14.1692 10.8712 13.5712 12.3481 13.5712C13.8231 13.5712 15.1596 14.1692 16.1269 15.1365C17.0942 16.1038 17.6923 17.4404 17.6923 18.9173C17.6923 20.3942 17.0942 21.7308 16.1269 22.6981C15.1596 23.6635 13.8231 24.2635 12.3481 24.2635C10.8712 24.2635 9.53461 23.6635 8.56731 22.6981C7.6 21.7308 7.00192 20.3942 7.00192 18.9173C7.00192 17.4404 7.6 16.1038 8.56731 15.1365Z" fill="white"></path>
            <path fill-rule="evenodd" clip-rule="evenodd" d="M12.3481 17.5865C11.6115 17.5865 11.0154 18.1827 11.0154 18.9173C11.0154 19.6538 11.6115 20.25 12.3481 20.25C12.4692 20.25 12.5885 20.2327 12.7 20.2019C13.2654 20.0481 13.6789 19.5308 13.6789 18.9173C13.6789 18.1827 13.0827 17.5865 12.3481 17.5865Z" fill="white"></path>
            <path fill-rule="evenodd" clip-rule="evenodd" d="M20.7712 16.6769V18.0731H38.8039L20.7712 16.6769Z" fill="white"></path>
            <path fill-rule="evenodd" clip-rule="evenodd" d="M51.0577 17.5865C50.3212 17.5865 49.725 18.1827 49.725 18.9173C49.725 19.6538 50.3212 20.25 51.0577 20.25C51.7923 20.25 52.3885 19.6538 52.3885 18.9173C52.3885 18.1827 51.7923 17.5865 51.0577 17.5865Z" fill="white"></path>
        </g>
</svg>