<svg xmlns="http://www.w3.org/2000/svg" viewBox="0 0 64 29" fill="none">
     <g id="car-5" stroke="none" stroke-width="1" fill="none" fill-rule="evenodd">
            <ellipse cx="31.5" cy="23.5" rx="28.5" ry="1.5" fill="white"></ellipse>
            <path fill-rule="evenodd" clip-rule="evenodd" d="M24.7369 3.51428C24.0984 3.552 23.8328 4.13657 23.6438 4.752L23.2368 6.072C22.6426 8.004 26.1621 8.028 26.0684 6.38228L25.9662 4.61657C25.9288 3.972 25.3771 3.47657 24.7369 3.51428Z" fill="white"></path>
            <path fill-rule="evenodd" clip-rule="evenodd" d="M8.58849 20.3571C5.36357 20.3571 1.9786 18.1611 1.83387 18.0669L1.50354 17.8509V12.9137L1.60911 12.7389C1.77427 12.4611 2.20506 11.5903 2.20506 10.896L2.39406 6.24343L11.3196 5.78571C15.1728 5.604 17.6213 5.99657 20.2162 6.408C21.6806 6.64285 23.196 6.88457 25.0468 7.03371L39.5266 7.032C40.3694 7.032 41.2123 6.91714 42.1045 6.79543C43.0035 6.672 43.9349 6.54514 44.8731 6.54514C45.011 6.55543 50.7883 7.20171 55.4333 8.39657C60.4154 9.67714 62.1061 11.688 62.3037 12.5726L62.7378 19.7589L62.1317 19.8994C60.9568 20.1737 59.9931 20.3537 57.4271 20.3537H54.7283V18.8966H57.4271C59.3954 18.8966 60.3234 18.792 61.2003 18.6137L61.1714 18.2194L60.8751 12.7731C60.7814 12.5571 59.3903 10.9183 55.0757 9.80914C50.5312 8.64 44.851 8.004 44.7948 7.99885C44.032 8.004 43.1891 8.11714 42.2969 8.23886C41.3979 8.36228 40.4665 8.48914 39.5266 8.48914H24.9889C23.024 8.33314 21.4814 8.08628 19.9898 7.84971C17.4698 7.44685 15.0928 7.06457 11.3911 7.24285L3.78857 7.632L3.65235 10.9234C3.65406 11.8971 3.1756 12.8966 2.95254 13.308V17.0451C3.85327 17.5749 6.44819 18.936 8.76046 18.8966H10.9518V20.3537H8.77919C8.71619 20.3554 8.65319 20.3571 8.58849 20.3571ZM18.5476 20.3554H47.1326V18.8966H18.5476V20.3554Z" fill="white"></path>
            <path fill-rule="evenodd" clip-rule="evenodd" d="M2.98152 10.2C2.95598 10.9149 2.93214 11.6726 2.92874 12.1234H3.84139C5.01795 12.1234 6.57933 11.2269 6.62701 10.2V9.25372H2.94917V10.2H2.98152Z" fill="white"></path>
            <path fill-rule="evenodd" clip-rule="evenodd" d="M56.7852 11.9349L58.1678 14.4326C58.6207 14.172 59.2882 14.0023 59.8024 14.0023H59.8365C60.5567 14.0109 61.2753 14.0023 61.9938 14.0023L61.9666 13.8857C61.9087 13.644 61.2225 12.4612 60.5124 11.9349C59.2712 11.9349 58.0282 11.9349 56.7852 11.9349Z" fill="white"></path>
            <path fill-rule="evenodd" clip-rule="evenodd" d="M19.4586 20.3537C19.2015 20.8955 18.8558 21.3857 18.4387 21.8057H18.4352C17.4919 22.7537 16.1877 23.3435 14.7506 23.3435C13.3101 23.3435 12.0058 22.7555 11.0608 21.8057C10.6454 21.3857 10.298 20.8955 10.0409 20.3537H8.58852V17.772C8.58852 16.0663 9.28152 14.5149 10.3985 13.392C11.5138 12.2675 13.0547 11.5697 14.7489 11.5697H14.7506C16.4414 11.5697 17.9806 12.2675 19.0993 13.392V13.3937H19.101C20.218 14.52 20.911 16.0697 20.911 17.772V20.3537H19.4586ZM50.9296 14.4189C48.9153 14.4189 47.2841 16.0629 47.2841 18.0909C47.2841 20.1189 48.9153 21.7629 50.9296 21.7629C52.9439 21.7629 54.5768 20.1189 54.5768 18.0909C54.5768 16.0629 52.9439 14.4189 50.9296 14.4189ZM14.7506 14.4189C12.7363 14.4189 11.1034 16.0629 11.1034 18.0909C11.1034 20.1189 12.7363 21.7629 14.7506 21.7629C16.7632 21.7629 18.3961 20.1189 18.3961 18.0909C18.3961 16.0629 16.7632 14.4189 14.7506 14.4189ZM50.9296 11.5697C52.6221 11.5697 54.1614 12.2675 55.2783 13.392L55.28 13.3937H55.2817C56.397 14.52 57.0917 16.0697 57.0917 17.772V20.3537H55.6393C55.3805 20.8955 55.0348 21.3857 54.6194 21.8057C53.6744 22.7555 52.3701 23.3435 50.9296 23.3435C49.4925 23.3435 48.1883 22.7537 47.245 21.8057H47.2416C46.8244 21.3857 46.4788 20.8955 46.2216 20.3537H44.7692V17.772C44.7692 16.0697 45.4622 14.52 46.5775 13.3937H46.5792L46.5809 13.392C47.6979 12.2675 49.2388 11.5697 50.9296 11.5697Z" fill="white"></path>
            <path fill-rule="evenodd" clip-rule="evenodd" d="M50.9296 16.7606C50.2008 16.7606 49.6083 17.3572 49.6083 18.0926C49.6083 18.8263 50.2008 19.4212 50.9296 19.4212C51.66 19.4212 52.2509 18.8263 52.2509 18.0926C52.2509 17.3572 51.66 16.7606 50.9296 16.7606Z" fill="white"></path>
            <path fill-rule="evenodd" clip-rule="evenodd" d="M24.0541 10.8789H27.3948V9.90691H24.0541V10.8789Z" fill="white"></path>
            <path fill-rule="evenodd" clip-rule="evenodd" d="M14.7506 16.7606C14.0201 16.7606 13.4293 17.3572 13.4293 18.0926C13.4293 18.8263 14.0201 19.4212 14.7506 19.4212C15.4794 19.4212 16.0719 18.8263 16.0719 18.0926C16.0719 17.3572 15.4794 16.7606 14.7506 16.7606Z" fill="white"></path>
            <path fill-rule="evenodd" clip-rule="evenodd" d="M22.927 15.9617V17.2063H43.2096L22.927 15.9617Z" fill="white"></path>
            <path fill-rule="evenodd" clip-rule="evenodd" d="M60.3609 17.4617H61.9904V16.4897H60.3609V17.4617Z" fill="white"></path>
            <path fill-rule="evenodd" clip-rule="evenodd" d="M60.1021 16.1743H59.3869C59.1026 16.1743 58.871 16.4074 58.871 16.6937V17.2577C58.871 17.5423 59.1026 17.7754 59.3869 17.7754H60.1021C60.3864 17.7754 60.618 17.5423 60.618 17.2577V16.6937C60.618 16.4074 60.3864 16.1743 60.1021 16.1743Z" fill="white"></path>
            <path fill-rule="evenodd" clip-rule="evenodd" d="M2.63587 17.7034V19.7554H7.9466V19.5943C5.73309 19.3886 3.52298 18.2212 2.63587 17.7034Z" fill="white"></path>
            <path fill-rule="evenodd" clip-rule="evenodd" d="M15.1967 3.16628C14.5582 3.204 14.2909 3.78857 14.1019 4.404L13.6966 5.724C13.6626 5.83543 13.6421 5.94171 13.6336 6.03943C14.6246 6.09085 15.5798 6.17314 16.5146 6.27085C16.5282 6.19714 16.5316 6.11657 16.5282 6.03428L16.426 4.26857C16.3886 3.624 15.8352 3.12857 15.1967 3.16628Z" fill="white"></path>
            <path fill-rule="evenodd" clip-rule="evenodd" d="M45.2408 6.65145C45.2221 6.63945 38.1661 2.3023 35.2136 1.38687C34.856 1.27716 34.5002 1.17773 34.1494 1.09545V1.09716C33.7731 1.00802 33.3866 0.925732 32.9967 0.855446L32.7413 2.28516C36.4157 3.22973 37.8664 5.54059 41.0675 7.47945C41.5732 7.7863 44.0098 7.60459 44.5052 7.89773L45.2408 6.65145Z" fill="white"></path>
            <path fill-rule="evenodd" clip-rule="evenodd" d="M38.2922 6.96175L38.2786 6.97546C37.8751 7.37146 37.6605 7.85489 37.6401 8.41546C37.6333 8.61604 37.6997 8.79089 37.8376 8.93489C37.9772 9.07889 38.1475 9.15261 38.3467 9.15261H39.9472C40.2112 9.15261 40.4342 9.01889 40.5636 8.78746C40.6913 8.55775 40.6862 8.29546 40.55 8.06918C40.2588 7.58575 39.7804 7.06632 39.0176 6.79889C38.7588 6.70804 38.488 6.76975 38.2922 6.96175Z" fill="white"></path>
            <path fill-rule="evenodd" clip-rule="evenodd" d="M39.6015 9.88456C39.4534 9.88456 39.307 9.81427 39.2116 9.68398L38.316 8.44798C38.1593 8.23198 38.207 7.92856 38.4216 7.76913C38.6361 7.61141 38.9375 7.65941 39.0958 7.87541L39.9914 9.11141C40.1498 9.32741 40.1021 9.63256 39.8859 9.79027C39.8007 9.8537 39.7003 9.88456 39.6015 9.88456Z" fill="white"></path>
        </g>
</svg>